<svg width="512" height="512" viewBox="0 0 512 512" fill="none" xmlns="http://www.w3.org/2000/svg" xmlns:xlink="http://www.w3.org/1999/xlink" class="h-full w-full" id="iconWithBackground"><rect id="r4" width="512" height="512" x="0" y="0" rx="100" fill="#e11d48" stroke="#000000" stroke-width="0" stroke-opacity="100%" paint-order="stroke"></rect><defs><linearGradient id="linearGradient" gradientUnits="userSpaceOnUse" gradientTransform="rotate(0)" style="transform-origin: center center;"><stop stop-color="#8e2de2"></stop><stop offset="1" stop-color="#4a00e0"></stop></linearGradient><radialGradient id="glare" cx="0" cy="0" r="1" gradientUnits="userSpaceOnUse" gradientTransform="translate(256) rotate(90) scale(512)"><stop stop-color="white"></stop><stop offset="1" stop-color="white" stop-opacity="0"></stop></radialGradient><clipPath id="clip"><use xlink:href="#r4"></use></clipPath></defs><svg xmlns="http://www.w3.org/2000/svg" xmlns:xlink="http://www.w3.org/1999/xlink" aria-hidden="true" role="img" x="138.5" y="138.5" class="iconify iconify--covid" width="235" height="235" viewBox="0 0 24 24" style="color: rgb(255, 255, 255);"><g fill="none" stroke="currentColor" stroke-linecap="round" stroke-linejoin="round" stroke-width="1.5"><path d="M17.25 20.55a3.429 3.429 0 1 0 0-6.858a3.429 3.429 0 0 0 0 6.858Zm-.571-9.429h1.142m-.571 0v2.572m3.839-1.218l.808.808m-.404-.404l-1.819 1.818m3.576 1.853v1.143m0-.572h-2.571m1.218 3.839l-.808.808m.404-.404l-1.819-1.818m-1.853 3.575h-1.142m.571 0V20.55m-3.839 1.218l-.808-.808m.404.404l1.819-1.818m-3.576-1.853V16.55m0 .571h2.571m-1.218-3.838l.808-.808m-.404.404l1.819 1.818M6.167 10.5a3.311 3.311 0 1 0 0-6.622a3.311 3.311 0 0 0 0 6.622ZM.75 17.121a5.42 5.42 0 0 1 7.55-4.982m5.707-4.26l.243-.97a4 4 0 0 1 3.88-3.03h4.877"></path><path d="m20.007 6.879l3-3l-3-3"></path></g></svg></svg>